<svg xmlns="http://www.w3.org/2000/svg" version="1.1" xmlns:xlink="http://www.w3.org/1999/xlink" xmlns:svgjs="http://svgjs.dev/svgjs" width="2000" height="2250" viewBox="0 0 2000 2250"><g transform="matrix(1,0,0,1,0.00014687500004129106,0)"><svg viewBox="0 0 320 360" data-background-color="#302d2d" preserveAspectRatio="xMidYMid meet" height="2250" width="2000" xmlns="http://www.w3.org/2000/svg" xmlns:xlink="http://www.w3.org/1999/xlink"><g id="tight-bounds" transform="matrix(1,0,0,1,0.000023499999997511622,0)"><svg viewBox="0 0 320 360" height="360" width="320"><g><svg></svg></g><g><svg viewBox="0 0 320 360" height="360" width="320"><g><path transform="translate(-74.99272,-51.79039) scale(4.65793,4.65793)" d="M20.6 59.9l0.8 1-0.4-1.3c-0.1-0.6-0.8 0.1-0.4 0.3M21.5 59.3c0.3 0.5 0.6 1 0.6 1.5 0 0.7 0.6 1 1.1 1.2-0.7-0.8-1.1-3-1.7-2.7M59.9 16.9c1.7 0 3.3-0.2 5.1 0.2 4.4 1.1 8.1 3.3 10.6 6.4l7 11.2c0.3 2.8 0.9 5.9 0.8 9.3 0.7 0 0.6-1 1.4-1.2-0.8 2-1.2 4.5-1.4 7.4-0.5-1.6 0-4 0.1-5.3-0.7 1.1-1.1 0.3-1.1-0.2 0.1-0.8-0.3-0.7-0.6-1-1.1-1-1.8-2.1-2.6-3.8 0.5-1.3 0.6-3.2-1-4.2-0.5-0.3-1.1-0.8-1.4-1.6-0.4-1.1-1.1-2.4-0.9-4.1 0.1-0.5-1.5 1.1-2.4 0.4-3.9-2.7-7.8-5.8-12.5-8.4-2.5 0-4.3-0.9-5.2-2-0.8-1-0.2-2.3 1-2.4 0.7 0 1.5-0.2 2.1 0.2 0.1-0.4 0.5-0.9 1-0.9M50 14.6l0.2 0.1c1 0.2 1.5 1.6 2.6 1.1 0 0.7 0.1 1.4-0.1 1.9-0.3 0.8-1.2 0.8-1.9 0.8-6.7-0.4-10.6 2.4-14.7 4.8-1.1 0.7-2.3 1.2-3.2 2.1-4.3 4-9 7.7-10.1 15.1l-0.9 8.2c-0.1 0.9-1.1 1.8-0.9 2.9l0.7 4.9c-0.7-0.7-1.1 0.2-0.9 0.6 0.1 0.3 0.5 1.3 1.1 0.4 0.8 1.5 1.6 4.4 2.7 5.7 3.4 4 7.8 7.6 11.4 11.2 0.9-0.2 1.6-0.2 1.8-0.8 0.3 0.6-0.3 1.2-0.8 1.3 1.6 1 3.4 1.9 5.8 2.1 3.1 0.2 6 0.7 8.7 1.4 1.4-0.4 2.8-0.6 4.3-0.7 0.5 0 0.8-0.8 1.4-1l0.1-1c0.6 0.9 0.5-0.3 0.1-0.9 0.7 0.6 0.9 1.1 1.2 1.5 0-0.3 0.8-1.4 0.8-0.1l0.2-1.3c0.3-0.2 0.4 1.1 0.7 0.2 0.3-0.9 0.9-0.2 1.5-0.5-0.2 0.4-0.1 1.2 0.6 0.7l0.8-0.7c0.5 1.2 1.3 0.7 1.7 0.5 4.4-2.8 8.8-6.1 13-9.4l-0.1 1.3 0.5-1.6c0.5 0.5 0.9 0.1 1.1-0.2 0.6-1 1.4-2 2.7-2.9-1.6 4.3-3.5 7.7-5.9 10.5l-1 1.2c0 0.7-0.2 1.6-1 1.7-0.4 0.1-1.2-0.2-1.8 0.4-0.3 0.4 0.7 1.2-0.1 0.6-0.7-0.5-1.4 0-2.2 0.2-0.6 0.2 0.4 0.8 0.6 1.2 0.2 0.4 0.4 0.8 0.3 1.3l-1.1-1.2c-1.3 0.7-2.1 2-3.2 3-0.5 0.4-0.3 1.1-0.3 1.7-0.7 0-1.5-0.2-1.9 0.2-0.3 0.4-0.2 1-0.2 1.6-1-0.1-1.1-1.6-2-1.3-0.9 0.2-1.9 0.3-2.7 0.8 0.6 1.2-1 0.5-0.8 0.7-1.5-0.9-2.8-1.6-4.4-1-3.4-1.1-7.6-0.6-10.7-0.2 0-0.5 0.1-1-0.1-1.1-0.2 0.5-0.8 0.3-0.7 0.3-1.9-1.3-3.8-2.1-5.8-3.2-1.8 0.2-3.5-0.7-4-1.2-1.4-1.3-3-0.6-4.3-0.9-2.8-0.7-3.8-3.6-4.1-5.6-0.2-1-1-1.4-1.3-1.3-1.3-4.2-3.3-8-4.9-11.9-0.4-1-0.3-2-0.3-3.1 0.5 0.2 1 0.1 0.9-0.6-0.5-3.3-1.7-5.8-3-8.2 0.7-3.4 0.8-7.4 2.4-10.4 1.4-2.7 4-4.1 5.8-6.4 0.6-0.8 0.6-1.9 1.2-2.6 2-2 4-4.1 6.2-5.9 1-0.8 2.2 0 3.7-0.3 0.5-1.8 2.5-3.4 4.4-2.9 0.8 0.2 2.4-1.9 2.9-2.1 0.8-0.3 0.4 0.8 0.4 1.5 1.9-1.5 4.5-2.3 6.9-3.2" fill="#2b4dbc" fill-rule="nonzero" stroke="none" stroke-width="1" stroke-linecap="butt" stroke-linejoin="miter" stroke-miterlimit="10" stroke-dasharray="" stroke-dashoffset="0" font-family="none" font-weight="none" font-size="none" text-anchor="none" style="mix-blend-mode: normal" data-fill-palette-color="tertiary"></path></g><g transform="matrix(1,0,0,1,125.71340366639086,90)"><svg viewBox="0 0 68.57319266721828 180" height="180" width="68.57319266721828"><g><svg viewBox="0 0 68.57319266721828 180" height="180" width="68.57319266721828"><g><svg viewBox="0 0 102.77691107644306 269.7824510452418" height="180" width="68.57319266721828"><g transform="matrix(1,0,0,1,0,89.7824510452418)"><svg viewBox="0 0 102.77691107644306 180" height="180" width="102.77691107644306"><g id="textblocktransform"><svg viewBox="0 0 102.77691107644306 180" height="180" width="102.77691107644306" id="textblock"><g><svg viewBox="0 0 102.77691107644306 180" height="180" width="102.77691107644306"><g transform="matrix(1,0,0,1,0,0)"><svg width="102.77691107644306" viewBox="4.65 -32.05 18.299999999999997 32.05" height="180" data-palette-color="#000000"><path d="M22.7-3.5L22.95-3.1 22.65 0 4.65 0 4.9-9.65 4.65-32.05 22.7-32.05 22.9-31.65 22.6-28.55 15.05-28.7 8.7-28.6 8.6-18.1 14.6-18 19.9-18.15 20.2-17.8 19.85-14.7 14.25-14.8 8.55-14.75 8.5-10 8.65-3.35 15-3.3 22.7-3.5Z" opacity="1" transform="matrix(1,0,0,1,0,0)" fill="#000000" class="wordmark-text-0" data-fill-palette-color="primary" id="text-0"></path></svg></g></svg></g></svg></g></svg></g><g transform="matrix(1,0,0,1,19.630390015600625,0)"><svg viewBox="0 0 63.516131045241806 63.516131045241806" height="63.516131045241806" width="63.516131045241806"><g><svg xmlns="http://www.w3.org/2000/svg" xmlns:xlink="http://www.w3.org/1999/xlink" version="1.0" x="0" y="0" viewBox="10 10 80 80" enable-background="new 0 0 100 100" xml:space="preserve" height="63.516131045241806" width="63.516131045241806" class="icon-icon-0" data-fill-palette-color="accent" id="icon-0"><path fill="none" stroke="#000000" stroke-linecap="round" stroke-linejoin="round" stroke-miterlimit="10" d="M78.33 56.667l1.945 15.555L78.33 56.667z"></path><path fill="none" stroke="#000000" stroke-linecap="round" stroke-linejoin="round" stroke-miterlimit="10" d="M75.689 22.862v-3.157C75.021 14.236 70.37 10 64.722 10c-5.647 0-10.298 4.235-10.968 9.704v3.157c-1.433 0.509-2.461 1.859-2.461 3.461 0 3.145 1.596 5.689 3.582 5.778 1.828 5.631 5.549 9.496 9.847 9.496 4.297 0 8.016-3.864 9.846-9.496 1.986-0.089 3.583-2.633 3.583-5.778C78.15 24.721 77.118 23.371 75.689 22.862z"></path><path fill="none" stroke="#000000" stroke-linecap="round" stroke-linejoin="round" stroke-miterlimit="10" d="M63.359 24.58h-6.806v1.945c0 1.071 0.877 1.947 1.946 1.947h2.917c1.069 0 1.942-0.876 1.942-1.947V24.58z"></path><path fill="none" stroke="#000000" stroke-linecap="round" stroke-linejoin="round" stroke-miterlimit="10" d="M56.554 24.58l-2.8-1.718L56.554 24.58z"></path><path fill="none" stroke="#000000" stroke-linecap="round" stroke-linejoin="round" stroke-miterlimit="10" d="M66.081 24.58h6.806v1.945c0 1.071-0.875 1.947-1.944 1.947h-2.916c-1.071 0-1.945-0.876-1.945-1.947V24.58z"></path><path fill="none" stroke="#000000" stroke-linecap="round" stroke-linejoin="round" stroke-miterlimit="10" d="M72.889 24.58l2.801-1.718L72.889 24.58z"></path><path fill="none" stroke="#000000" stroke-linecap="round" stroke-linejoin="round" stroke-miterlimit="10" d="M63.359 24.58h2.722H63.359z"></path><path fill="none" stroke="#000000" stroke-linecap="round" stroke-linejoin="round" stroke-miterlimit="10" d="M62.292 35.745c1.342 1.341 3.519 1.341 4.86 0C65.811 37.086 63.634 37.086 62.292 35.745z"></path><path fill="none" stroke="#000000" stroke-linecap="round" stroke-linejoin="round" stroke-miterlimit="10" d="M75.689 22.862c-3.038 0-5.788-1.231-7.78-3.221l0 0c-2.147-2.147-4.961-3.222-7.777-3.222-3.522 0-6.378 2.885-6.378 6.443v-3.157C54.424 14.236 59.074 10 64.722 10c5.648 0 10.299 4.235 10.968 9.704V22.862z"></path><path fill="none" stroke="#000000" stroke-linecap="round" stroke-linejoin="round" stroke-miterlimit="10" d="M64.722 48.889c3.219 0 6.066-1.571 7.834-3.981-0.535-0.258-1.031-0.585-1.446-1.002-0.941-0.937-1.52-2.235-1.52-3.668v-0.429c-1.469 1.139-3.119 1.788-4.868 1.788-1.748 0-3.398-0.649-4.866-1.788v0.429c0 1.433-0.583 2.732-1.521 3.668-0.417 0.417-0.911 0.744-1.449 0.999C58.656 47.317 61.503 48.889 64.722 48.889z"></path><path fill="none" stroke="#000000" stroke-linecap="round" stroke-linejoin="round" stroke-miterlimit="10" d="M72.792 45.033c-0.084-0.034-0.155-0.089-0.236-0.125-1.768 2.41-4.615 3.981-7.834 3.981s-6.065-1.571-7.836-3.984c-0.078 0.04-0.151 0.092-0.236 0.128l-3.415 1.415c2.415 3.8 6.651 6.33 11.486 6.33 4.837 0 9.072-2.529 11.489-6.33L72.792 45.033z"></path><path fill="none" stroke="#000000" stroke-linecap="round" stroke-linejoin="round" stroke-miterlimit="10" d="M58.889 85.556H10v2.224C10 89.002 11.001 90 12.223 90h44.444c1.222 0 2.222-0.998 2.222-2.221V85.556z"></path><path fill="none" stroke="#000000" stroke-linecap="round" stroke-linejoin="round" stroke-miterlimit="10" d="M58.889 82.219c0 1.833-1.5 3.333-3.333 3.333H13.335c-1.834 0-3.335-1.5-3.335-3.333V57.774c0-1.833 1.5-3.335 3.335-3.335h42.221c1.833 0 3.333 1.502 3.333 3.335V82.219z"></path><path fill="none" stroke="#000000" stroke-linecap="round" stroke-linejoin="round" stroke-miterlimit="10" d="M55.556 54.439c1.833 0 3.333 1.502 3.333 3.335v14.447H90l-0.004-14.826c0-2.469-1-4.704-2.614-6.321L76.21 46.448c-2.417 3.8-6.652 6.33-11.489 6.33-4.835 0-9.071-2.529-11.486-6.33l-11.172 4.626c-0.938 0.938-1.66 2.089-2.107 3.365H55.556z"></path><circle fill="none" stroke="#000000" stroke-linecap="round" stroke-linejoin="round" stroke-miterlimit="10" cx="34.444" cy="70" r="3.3"></circle></svg></g></svg></g><g></g></svg></g></svg></g></svg></g></svg></g><defs></defs></svg><rect width="320" height="360" fill="none" stroke="none" visibility="hidden"></rect></g></svg></g></svg>